<?xml version="1.0" encoding="utf-8" ?>
<svg baseProfile="tiny" height="594.00000mm" version="1.2" width="841.00000mm" xmlns="http://www.w3.org/2000/svg" xmlns:ev="http://www.w3.org/2001/xml-events" xmlns:xlink="http://www.w3.org/1999/xlink"><defs /><rect fill="#7252ef" height="594.00000mm" width="841.00000mm" x="0" y="0" /><rect fill="none" height="564.00000mm" stroke="white" stroke-width="2" width="811.00000mm" x="15.00000mm" y="15.00000mm" /><rect fill="none" height="554.00000mm" stroke="white" stroke-width="2" width="801.00000mm" x="20.00000mm" y="20.00000mm" /><line stroke="white" stroke-width="4" x1="15.00000mm" x2="20.00000mm" y1="297.00000mm" y2="297.00000mm" /><line stroke="white" stroke-width="4" x1="826.00000mm" x2="821.00000mm" y1="297.00000mm" y2="297.00000mm" /><line stroke="white" stroke-width="2" x1="15.00000mm" x2="20.00000mm" y1="331.62500mm" y2="331.62500mm" /><text fill="white" font-family="Arial" font-size="4mm" text-anchor="middle" x="17.50000mm" y="315.81250mm">I</text><line stroke="white" stroke-width="2" x1="15.00000mm" x2="20.00000mm" y1="262.37500mm" y2="262.37500mm" /><text fill="white" font-family="Arial" font-size="4mm" text-anchor="middle" x="17.50000mm" y="281.18750mm">H</text><line stroke="white" stroke-width="2" x1="821.00000mm" x2="826.00000mm" y1="331.62500mm" y2="331.62500mm" /><text fill="white" font-family="Arial" font-size="4mm" text-anchor="middle" x="823.50000mm" y="315.81250mm">I</text><line stroke="white" stroke-width="2" x1="821.00000mm" x2="826.00000mm" y1="262.37500mm" y2="262.37500mm" /><text fill="white" font-family="Arial" font-size="4mm" text-anchor="middle" x="823.50000mm" y="281.18750mm">H</text><line stroke="white" stroke-width="2" x1="15.00000mm" x2="20.00000mm" y1="366.25000mm" y2="366.25000mm" /><text fill="white" font-family="Arial" font-size="4mm" text-anchor="middle" x="17.50000mm" y="350.43750mm">J</text><line stroke="white" stroke-width="2" x1="15.00000mm" x2="20.00000mm" y1="227.75000mm" y2="227.75000mm" /><text fill="white" font-family="Arial" font-size="4mm" text-anchor="middle" x="17.50000mm" y="246.56250mm">G</text><line stroke="white" stroke-width="2" x1="821.00000mm" x2="826.00000mm" y1="366.25000mm" y2="366.25000mm" /><text fill="white" font-family="Arial" font-size="4mm" text-anchor="middle" x="823.50000mm" y="350.43750mm">J</text><line stroke="white" stroke-width="2" x1="821.00000mm" x2="826.00000mm" y1="227.75000mm" y2="227.75000mm" /><text fill="white" font-family="Arial" font-size="4mm" text-anchor="middle" x="823.50000mm" y="246.56250mm">G</text><line stroke="white" stroke-width="2" x1="15.00000mm" x2="20.00000mm" y1="400.87500mm" y2="400.87500mm" /><text fill="white" font-family="Arial" font-size="4mm" text-anchor="middle" x="17.50000mm" y="385.06250mm">K</text><line stroke="white" stroke-width="2" x1="15.00000mm" x2="20.00000mm" y1="193.12500mm" y2="193.12500mm" /><text fill="white" font-family="Arial" font-size="4mm" text-anchor="middle" x="17.50000mm" y="211.93750mm">F</text><line stroke="white" stroke-width="2" x1="821.00000mm" x2="826.00000mm" y1="400.87500mm" y2="400.87500mm" /><text fill="white" font-family="Arial" font-size="4mm" text-anchor="middle" x="823.50000mm" y="385.06250mm">K</text><line stroke="white" stroke-width="2" x1="821.00000mm" x2="826.00000mm" y1="193.12500mm" y2="193.12500mm" /><text fill="white" font-family="Arial" font-size="4mm" text-anchor="middle" x="823.50000mm" y="211.93750mm">F</text><line stroke="white" stroke-width="2" x1="15.00000mm" x2="20.00000mm" y1="435.50000mm" y2="435.50000mm" /><text fill="white" font-family="Arial" font-size="4mm" text-anchor="middle" x="17.50000mm" y="419.68750mm">L</text><line stroke="white" stroke-width="2" x1="15.00000mm" x2="20.00000mm" y1="158.50000mm" y2="158.50000mm" /><text fill="white" font-family="Arial" font-size="4mm" text-anchor="middle" x="17.50000mm" y="177.31250mm">E</text><line stroke="white" stroke-width="2" x1="821.00000mm" x2="826.00000mm" y1="435.50000mm" y2="435.50000mm" /><text fill="white" font-family="Arial" font-size="4mm" text-anchor="middle" x="823.50000mm" y="419.68750mm">L</text><line stroke="white" stroke-width="2" x1="821.00000mm" x2="826.00000mm" y1="158.50000mm" y2="158.50000mm" /><text fill="white" font-family="Arial" font-size="4mm" text-anchor="middle" x="823.50000mm" y="177.31250mm">E</text><line stroke="white" stroke-width="2" x1="15.00000mm" x2="20.00000mm" y1="470.12500mm" y2="470.12500mm" /><text fill="white" font-family="Arial" font-size="4mm" text-anchor="middle" x="17.50000mm" y="454.31250mm">M</text><line stroke="white" stroke-width="2" x1="15.00000mm" x2="20.00000mm" y1="123.87500mm" y2="123.87500mm" /><text fill="white" font-family="Arial" font-size="4mm" text-anchor="middle" x="17.50000mm" y="142.68750mm">D</text><line stroke="white" stroke-width="2" x1="821.00000mm" x2="826.00000mm" y1="470.12500mm" y2="470.12500mm" /><text fill="white" font-family="Arial" font-size="4mm" text-anchor="middle" x="823.50000mm" y="454.31250mm">M</text><line stroke="white" stroke-width="2" x1="821.00000mm" x2="826.00000mm" y1="123.87500mm" y2="123.87500mm" /><text fill="white" font-family="Arial" font-size="4mm" text-anchor="middle" x="823.50000mm" y="142.68750mm">D</text><line stroke="white" stroke-width="2" x1="15.00000mm" x2="20.00000mm" y1="504.75000mm" y2="504.75000mm" /><text fill="white" font-family="Arial" font-size="4mm" text-anchor="middle" x="17.50000mm" y="488.93750mm">N</text><line stroke="white" stroke-width="2" x1="15.00000mm" x2="20.00000mm" y1="89.25000mm" y2="89.25000mm" /><text fill="white" font-family="Arial" font-size="4mm" text-anchor="middle" x="17.50000mm" y="108.06250mm">C</text><line stroke="white" stroke-width="2" x1="821.00000mm" x2="826.00000mm" y1="504.75000mm" y2="504.75000mm" /><text fill="white" font-family="Arial" font-size="4mm" text-anchor="middle" x="823.50000mm" y="488.93750mm">N</text><line stroke="white" stroke-width="2" x1="821.00000mm" x2="826.00000mm" y1="89.25000mm" y2="89.25000mm" /><text fill="white" font-family="Arial" font-size="4mm" text-anchor="middle" x="823.50000mm" y="108.06250mm">C</text><line stroke="white" stroke-width="2" x1="15.00000mm" x2="20.00000mm" y1="539.37500mm" y2="539.37500mm" /><text fill="white" font-family="Arial" font-size="4mm" text-anchor="middle" x="17.50000mm" y="523.56250mm">O</text><line stroke="white" stroke-width="2" x1="15.00000mm" x2="20.00000mm" y1="54.62500mm" y2="54.62500mm" /><text fill="white" font-family="Arial" font-size="4mm" text-anchor="middle" x="17.50000mm" y="73.43750mm">B</text><line stroke="white" stroke-width="2" x1="821.00000mm" x2="826.00000mm" y1="539.37500mm" y2="539.37500mm" /><text fill="white" font-family="Arial" font-size="4mm" text-anchor="middle" x="823.50000mm" y="523.56250mm">O</text><line stroke="white" stroke-width="2" x1="821.00000mm" x2="826.00000mm" y1="54.62500mm" y2="54.62500mm" /><text fill="white" font-family="Arial" font-size="4mm" text-anchor="middle" x="823.50000mm" y="73.43750mm">B</text><text fill="white" font-family="Arial" font-size="4mm" text-anchor="middle" x="17.50000mm" y="558.18750mm">P</text><text fill="white" font-family="Arial" font-size="4mm" text-anchor="middle" x="823.50000mm" y="558.18750mm">P</text><text fill="white" font-family="Arial" font-size="4mm" text-anchor="middle" x="17.50000mm" y="38.81250mm">A</text><text fill="white" font-family="Arial" font-size="4mm" text-anchor="middle" x="823.50000mm" y="38.81250mm">A</text><line stroke="white" stroke-width="4" x1="420.50000mm" x2="420.50000mm" y1="15.00000mm" y2="20.00000mm" /><line stroke="white" stroke-width="4" x1="420.50000mm" x2="420.50000mm" y1="579.00000mm" y2="574.00000mm" /><line stroke="white" stroke-width="2" x1="453.87500mm" x2="453.87500mm" y1="15.00000mm" y2="20.00000mm" /><text fill="white" font-family="Arial" font-size="4mm" text-anchor="middle" x="437.18750mm" y="19.00000mm">13</text><line stroke="white" stroke-width="2" x1="387.12500mm" x2="387.12500mm" y1="15.00000mm" y2="20.00000mm" /><text fill="white" font-family="Arial" font-size="4mm" text-anchor="middle" x="403.81250mm" y="19.00000mm">12</text><line stroke="white" stroke-width="2" x1="453.87500mm" x2="453.87500mm" y1="574.00000mm" y2="579.00000mm" /><text fill="white" font-family="Arial" font-size="4mm" text-anchor="middle" x="437.18750mm" y="578.00000mm">13</text><line stroke="white" stroke-width="2" x1="387.12500mm" x2="387.12500mm" y1="574.00000mm" y2="579.00000mm" /><text fill="white" font-family="Arial" font-size="4mm" text-anchor="middle" x="403.81250mm" y="578.00000mm">12</text><line stroke="white" stroke-width="2" x1="487.25000mm" x2="487.25000mm" y1="15.00000mm" y2="20.00000mm" /><text fill="white" font-family="Arial" font-size="4mm" text-anchor="middle" x="470.56250mm" y="19.00000mm">14</text><line stroke="white" stroke-width="2" x1="353.75000mm" x2="353.75000mm" y1="15.00000mm" y2="20.00000mm" /><text fill="white" font-family="Arial" font-size="4mm" text-anchor="middle" x="370.43750mm" y="19.00000mm">11</text><line stroke="white" stroke-width="2" x1="487.25000mm" x2="487.25000mm" y1="574.00000mm" y2="579.00000mm" /><text fill="white" font-family="Arial" font-size="4mm" text-anchor="middle" x="470.56250mm" y="578.00000mm">14</text><line stroke="white" stroke-width="2" x1="353.75000mm" x2="353.75000mm" y1="574.00000mm" y2="579.00000mm" /><text fill="white" font-family="Arial" font-size="4mm" text-anchor="middle" x="370.43750mm" y="578.00000mm">11</text><line stroke="white" stroke-width="2" x1="520.62500mm" x2="520.62500mm" y1="15.00000mm" y2="20.00000mm" /><text fill="white" font-family="Arial" font-size="4mm" text-anchor="middle" x="503.93750mm" y="19.00000mm">15</text><line stroke="white" stroke-width="2" x1="320.37500mm" x2="320.37500mm" y1="15.00000mm" y2="20.00000mm" /><text fill="white" font-family="Arial" font-size="4mm" text-anchor="middle" x="337.06250mm" y="19.00000mm">10</text><line stroke="white" stroke-width="2" x1="520.62500mm" x2="520.62500mm" y1="574.00000mm" y2="579.00000mm" /><text fill="white" font-family="Arial" font-size="4mm" text-anchor="middle" x="503.93750mm" y="578.00000mm">15</text><line stroke="white" stroke-width="2" x1="320.37500mm" x2="320.37500mm" y1="574.00000mm" y2="579.00000mm" /><text fill="white" font-family="Arial" font-size="4mm" text-anchor="middle" x="337.06250mm" y="578.00000mm">10</text><line stroke="white" stroke-width="2" x1="554.00000mm" x2="554.00000mm" y1="15.00000mm" y2="20.00000mm" /><text fill="white" font-family="Arial" font-size="4mm" text-anchor="middle" x="537.31250mm" y="19.00000mm">16</text><line stroke="white" stroke-width="2" x1="287.00000mm" x2="287.00000mm" y1="15.00000mm" y2="20.00000mm" /><text fill="white" font-family="Arial" font-size="4mm" text-anchor="middle" x="303.68750mm" y="19.00000mm">9</text><line stroke="white" stroke-width="2" x1="554.00000mm" x2="554.00000mm" y1="574.00000mm" y2="579.00000mm" /><text fill="white" font-family="Arial" font-size="4mm" text-anchor="middle" x="537.31250mm" y="578.00000mm">16</text><line stroke="white" stroke-width="2" x1="287.00000mm" x2="287.00000mm" y1="574.00000mm" y2="579.00000mm" /><text fill="white" font-family="Arial" font-size="4mm" text-anchor="middle" x="303.68750mm" y="578.00000mm">9</text><line stroke="white" stroke-width="2" x1="587.37500mm" x2="587.37500mm" y1="15.00000mm" y2="20.00000mm" /><text fill="white" font-family="Arial" font-size="4mm" text-anchor="middle" x="570.68750mm" y="19.00000mm">17</text><line stroke="white" stroke-width="2" x1="253.62500mm" x2="253.62500mm" y1="15.00000mm" y2="20.00000mm" /><text fill="white" font-family="Arial" font-size="4mm" text-anchor="middle" x="270.31250mm" y="19.00000mm">8</text><line stroke="white" stroke-width="2" x1="587.37500mm" x2="587.37500mm" y1="574.00000mm" y2="579.00000mm" /><text fill="white" font-family="Arial" font-size="4mm" text-anchor="middle" x="570.68750mm" y="578.00000mm">17</text><line stroke="white" stroke-width="2" x1="253.62500mm" x2="253.62500mm" y1="574.00000mm" y2="579.00000mm" /><text fill="white" font-family="Arial" font-size="4mm" text-anchor="middle" x="270.31250mm" y="578.00000mm">8</text><line stroke="white" stroke-width="2" x1="620.75000mm" x2="620.75000mm" y1="15.00000mm" y2="20.00000mm" /><text fill="white" font-family="Arial" font-size="4mm" text-anchor="middle" x="604.06250mm" y="19.00000mm">18</text><line stroke="white" stroke-width="2" x1="220.25000mm" x2="220.25000mm" y1="15.00000mm" y2="20.00000mm" /><text fill="white" font-family="Arial" font-size="4mm" text-anchor="middle" x="236.93750mm" y="19.00000mm">7</text><line stroke="white" stroke-width="2" x1="620.75000mm" x2="620.75000mm" y1="574.00000mm" y2="579.00000mm" /><text fill="white" font-family="Arial" font-size="4mm" text-anchor="middle" x="604.06250mm" y="578.00000mm">18</text><line stroke="white" stroke-width="2" x1="220.25000mm" x2="220.25000mm" y1="574.00000mm" y2="579.00000mm" /><text fill="white" font-family="Arial" font-size="4mm" text-anchor="middle" x="236.93750mm" y="578.00000mm">7</text><line stroke="white" stroke-width="2" x1="654.12500mm" x2="654.12500mm" y1="15.00000mm" y2="20.00000mm" /><text fill="white" font-family="Arial" font-size="4mm" text-anchor="middle" x="637.43750mm" y="19.00000mm">19</text><line stroke="white" stroke-width="2" x1="186.87500mm" x2="186.87500mm" y1="15.00000mm" y2="20.00000mm" /><text fill="white" font-family="Arial" font-size="4mm" text-anchor="middle" x="203.56250mm" y="19.00000mm">6</text><line stroke="white" stroke-width="2" x1="654.12500mm" x2="654.12500mm" y1="574.00000mm" y2="579.00000mm" /><text fill="white" font-family="Arial" font-size="4mm" text-anchor="middle" x="637.43750mm" y="578.00000mm">19</text><line stroke="white" stroke-width="2" x1="186.87500mm" x2="186.87500mm" y1="574.00000mm" y2="579.00000mm" /><text fill="white" font-family="Arial" font-size="4mm" text-anchor="middle" x="203.56250mm" y="578.00000mm">6</text><line stroke="white" stroke-width="2" x1="687.50000mm" x2="687.50000mm" y1="15.00000mm" y2="20.00000mm" /><text fill="white" font-family="Arial" font-size="4mm" text-anchor="middle" x="670.81250mm" y="19.00000mm">20</text><line stroke="white" stroke-width="2" x1="153.50000mm" x2="153.50000mm" y1="15.00000mm" y2="20.00000mm" /><text fill="white" font-family="Arial" font-size="4mm" text-anchor="middle" x="170.18750mm" y="19.00000mm">5</text><line stroke="white" stroke-width="2" x1="687.50000mm" x2="687.50000mm" y1="574.00000mm" y2="579.00000mm" /><text fill="white" font-family="Arial" font-size="4mm" text-anchor="middle" x="670.81250mm" y="578.00000mm">20</text><line stroke="white" stroke-width="2" x1="153.50000mm" x2="153.50000mm" y1="574.00000mm" y2="579.00000mm" /><text fill="white" font-family="Arial" font-size="4mm" text-anchor="middle" x="170.18750mm" y="578.00000mm">5</text><line stroke="white" stroke-width="2" x1="720.87500mm" x2="720.87500mm" y1="15.00000mm" y2="20.00000mm" /><text fill="white" font-family="Arial" font-size="4mm" text-anchor="middle" x="704.18750mm" y="19.00000mm">21</text><line stroke="white" stroke-width="2" x1="120.12500mm" x2="120.12500mm" y1="15.00000mm" y2="20.00000mm" /><text fill="white" font-family="Arial" font-size="4mm" text-anchor="middle" x="136.81250mm" y="19.00000mm">4</text><line stroke="white" stroke-width="2" x1="720.87500mm" x2="720.87500mm" y1="574.00000mm" y2="579.00000mm" /><text fill="white" font-family="Arial" font-size="4mm" text-anchor="middle" x="704.18750mm" y="578.00000mm">21</text><line stroke="white" stroke-width="2" x1="120.12500mm" x2="120.12500mm" y1="574.00000mm" y2="579.00000mm" /><text fill="white" font-family="Arial" font-size="4mm" text-anchor="middle" x="136.81250mm" y="578.00000mm">4</text><line stroke="white" stroke-width="2" x1="754.25000mm" x2="754.25000mm" y1="15.00000mm" y2="20.00000mm" /><text fill="white" font-family="Arial" font-size="4mm" text-anchor="middle" x="737.56250mm" y="19.00000mm">22</text><line stroke="white" stroke-width="2" x1="86.75000mm" x2="86.75000mm" y1="15.00000mm" y2="20.00000mm" /><text fill="white" font-family="Arial" font-size="4mm" text-anchor="middle" x="103.43750mm" y="19.00000mm">3</text><line stroke="white" stroke-width="2" x1="754.25000mm" x2="754.25000mm" y1="574.00000mm" y2="579.00000mm" /><text fill="white" font-family="Arial" font-size="4mm" text-anchor="middle" x="737.56250mm" y="578.00000mm">22</text><line stroke="white" stroke-width="2" x1="86.75000mm" x2="86.75000mm" y1="574.00000mm" y2="579.00000mm" /><text fill="white" font-family="Arial" font-size="4mm" text-anchor="middle" x="103.43750mm" y="578.00000mm">3</text><line stroke="white" stroke-width="2" x1="787.62500mm" x2="787.62500mm" y1="15.00000mm" y2="20.00000mm" /><text fill="white" font-family="Arial" font-size="4mm" text-anchor="middle" x="770.93750mm" y="19.00000mm">23</text><line stroke="white" stroke-width="2" x1="53.37500mm" x2="53.37500mm" y1="15.00000mm" y2="20.00000mm" /><text fill="white" font-family="Arial" font-size="4mm" text-anchor="middle" x="70.06250mm" y="19.00000mm">2</text><line stroke="white" stroke-width="2" x1="787.62500mm" x2="787.62500mm" y1="574.00000mm" y2="579.00000mm" /><text fill="white" font-family="Arial" font-size="4mm" text-anchor="middle" x="770.93750mm" y="578.00000mm">23</text><line stroke="white" stroke-width="2" x1="53.37500mm" x2="53.37500mm" y1="574.00000mm" y2="579.00000mm" /><text fill="white" font-family="Arial" font-size="4mm" text-anchor="middle" x="70.06250mm" y="578.00000mm">2</text><text fill="white" font-family="Arial" font-size="4mm" text-anchor="middle" x="804.31250mm" y="19.00000mm">24</text><text fill="white" font-family="Arial" font-size="4mm" text-anchor="middle" x="804.31250mm" y="578.00000mm">24</text><text fill="white" font-family="Arial" font-size="4mm" text-anchor="middle" x="36.68750mm" y="578.00000mm">1</text><text fill="white" font-family="Arial" font-size="4mm" text-anchor="middle" x="36.68750mm" y="19.00000mm">1</text></svg>