<?xml version="1.0" encoding="utf-8" ?>
<svg baseProfile="tiny" height="594.00000mm" version="1.2" width="841.00000mm" xmlns="http://www.w3.org/2000/svg" xmlns:ev="http://www.w3.org/2001/xml-events" xmlns:xlink="http://www.w3.org/1999/xlink"><defs /><rect fill="#82bd57" height="594.00000mm" width="841.00000mm" x="0" y="0" /><rect fill="none" height="564.00000mm" stroke="white" stroke-width="2" width="811.00000mm" x="15.00000mm" y="15.00000mm" /><rect fill="none" height="554.00000mm" stroke="white" stroke-width="2" width="801.00000mm" x="20.00000mm" y="20.00000mm" /><line stroke="white" stroke-width="4" x1="15.00000mm" x2="20.00000mm" y1="297.00000mm" y2="297.00000mm" /><line stroke="white" stroke-width="4" x1="826.00000mm" x2="821.00000mm" y1="297.00000mm" y2="297.00000mm" /><line stroke="white" stroke-width="2" x1="15.00000mm" x2="20.00000mm" y1="343.16667mm" y2="343.16667mm" /><text fill="white" font-family="Arial" font-size="4mm" text-anchor="middle" x="17.50000mm" y="321.58333mm">G</text><line stroke="white" stroke-width="2" x1="15.00000mm" x2="20.00000mm" y1="250.83333mm" y2="250.83333mm" /><text fill="white" font-family="Arial" font-size="4mm" text-anchor="middle" x="17.50000mm" y="275.41667mm">F</text><line stroke="white" stroke-width="2" x1="821.00000mm" x2="826.00000mm" y1="343.16667mm" y2="343.16667mm" /><text fill="white" font-family="Arial" font-size="4mm" text-anchor="middle" x="823.50000mm" y="321.58333mm">G</text><line stroke="white" stroke-width="2" x1="821.00000mm" x2="826.00000mm" y1="250.83333mm" y2="250.83333mm" /><text fill="white" font-family="Arial" font-size="4mm" text-anchor="middle" x="823.50000mm" y="275.41667mm">F</text><line stroke="white" stroke-width="2" x1="15.00000mm" x2="20.00000mm" y1="389.33333mm" y2="389.33333mm" /><text fill="white" font-family="Arial" font-size="4mm" text-anchor="middle" x="17.50000mm" y="367.75000mm">H</text><line stroke="white" stroke-width="2" x1="15.00000mm" x2="20.00000mm" y1="204.66667mm" y2="204.66667mm" /><text fill="white" font-family="Arial" font-size="4mm" text-anchor="middle" x="17.50000mm" y="229.25000mm">E</text><line stroke="white" stroke-width="2" x1="821.00000mm" x2="826.00000mm" y1="389.33333mm" y2="389.33333mm" /><text fill="white" font-family="Arial" font-size="4mm" text-anchor="middle" x="823.50000mm" y="367.75000mm">H</text><line stroke="white" stroke-width="2" x1="821.00000mm" x2="826.00000mm" y1="204.66667mm" y2="204.66667mm" /><text fill="white" font-family="Arial" font-size="4mm" text-anchor="middle" x="823.50000mm" y="229.25000mm">E</text><line stroke="white" stroke-width="2" x1="15.00000mm" x2="20.00000mm" y1="435.50000mm" y2="435.50000mm" /><text fill="white" font-family="Arial" font-size="4mm" text-anchor="middle" x="17.50000mm" y="413.91667mm">I</text><line stroke="white" stroke-width="2" x1="15.00000mm" x2="20.00000mm" y1="158.50000mm" y2="158.50000mm" /><text fill="white" font-family="Arial" font-size="4mm" text-anchor="middle" x="17.50000mm" y="183.08333mm">D</text><line stroke="white" stroke-width="2" x1="821.00000mm" x2="826.00000mm" y1="435.50000mm" y2="435.50000mm" /><text fill="white" font-family="Arial" font-size="4mm" text-anchor="middle" x="823.50000mm" y="413.91667mm">I</text><line stroke="white" stroke-width="2" x1="821.00000mm" x2="826.00000mm" y1="158.50000mm" y2="158.50000mm" /><text fill="white" font-family="Arial" font-size="4mm" text-anchor="middle" x="823.50000mm" y="183.08333mm">D</text><line stroke="white" stroke-width="2" x1="15.00000mm" x2="20.00000mm" y1="481.66667mm" y2="481.66667mm" /><text fill="white" font-family="Arial" font-size="4mm" text-anchor="middle" x="17.50000mm" y="460.08333mm">J</text><line stroke="white" stroke-width="2" x1="15.00000mm" x2="20.00000mm" y1="112.33333mm" y2="112.33333mm" /><text fill="white" font-family="Arial" font-size="4mm" text-anchor="middle" x="17.50000mm" y="136.91667mm">C</text><line stroke="white" stroke-width="2" x1="821.00000mm" x2="826.00000mm" y1="481.66667mm" y2="481.66667mm" /><text fill="white" font-family="Arial" font-size="4mm" text-anchor="middle" x="823.50000mm" y="460.08333mm">J</text><line stroke="white" stroke-width="2" x1="821.00000mm" x2="826.00000mm" y1="112.33333mm" y2="112.33333mm" /><text fill="white" font-family="Arial" font-size="4mm" text-anchor="middle" x="823.50000mm" y="136.91667mm">C</text><line stroke="white" stroke-width="2" x1="15.00000mm" x2="20.00000mm" y1="527.83333mm" y2="527.83333mm" /><text fill="white" font-family="Arial" font-size="4mm" text-anchor="middle" x="17.50000mm" y="506.25000mm">K</text><line stroke="white" stroke-width="2" x1="15.00000mm" x2="20.00000mm" y1="66.16667mm" y2="66.16667mm" /><text fill="white" font-family="Arial" font-size="4mm" text-anchor="middle" x="17.50000mm" y="90.75000mm">B</text><line stroke="white" stroke-width="2" x1="821.00000mm" x2="826.00000mm" y1="527.83333mm" y2="527.83333mm" /><text fill="white" font-family="Arial" font-size="4mm" text-anchor="middle" x="823.50000mm" y="506.25000mm">K</text><line stroke="white" stroke-width="2" x1="821.00000mm" x2="826.00000mm" y1="66.16667mm" y2="66.16667mm" /><text fill="white" font-family="Arial" font-size="4mm" text-anchor="middle" x="823.50000mm" y="90.75000mm">B</text><text fill="white" font-family="Arial" font-size="4mm" text-anchor="middle" x="17.50000mm" y="552.41667mm">L</text><text fill="white" font-family="Arial" font-size="4mm" text-anchor="middle" x="823.50000mm" y="552.41667mm">L</text><text fill="white" font-family="Arial" font-size="4mm" text-anchor="middle" x="17.50000mm" y="44.58333mm">A</text><text fill="white" font-family="Arial" font-size="4mm" text-anchor="middle" x="823.50000mm" y="44.58333mm">A</text><line stroke="white" stroke-width="4" x1="420.50000mm" x2="420.50000mm" y1="15.00000mm" y2="20.00000mm" /><line stroke="white" stroke-width="4" x1="420.50000mm" x2="420.50000mm" y1="579.00000mm" y2="574.00000mm" /><line stroke="white" stroke-width="2" x1="470.56250mm" x2="470.56250mm" y1="15.00000mm" y2="20.00000mm" /><text fill="white" font-family="Arial" font-size="4mm" text-anchor="middle" x="445.53125mm" y="19.00000mm">9</text><line stroke="white" stroke-width="2" x1="370.43750mm" x2="370.43750mm" y1="15.00000mm" y2="20.00000mm" /><text fill="white" font-family="Arial" font-size="4mm" text-anchor="middle" x="395.46875mm" y="19.00000mm">8</text><line stroke="white" stroke-width="2" x1="470.56250mm" x2="470.56250mm" y1="574.00000mm" y2="579.00000mm" /><text fill="white" font-family="Arial" font-size="4mm" text-anchor="middle" x="445.53125mm" y="578.00000mm">9</text><line stroke="white" stroke-width="2" x1="370.43750mm" x2="370.43750mm" y1="574.00000mm" y2="579.00000mm" /><text fill="white" font-family="Arial" font-size="4mm" text-anchor="middle" x="395.46875mm" y="578.00000mm">8</text><line stroke="white" stroke-width="2" x1="520.62500mm" x2="520.62500mm" y1="15.00000mm" y2="20.00000mm" /><text fill="white" font-family="Arial" font-size="4mm" text-anchor="middle" x="495.59375mm" y="19.00000mm">10</text><line stroke="white" stroke-width="2" x1="320.37500mm" x2="320.37500mm" y1="15.00000mm" y2="20.00000mm" /><text fill="white" font-family="Arial" font-size="4mm" text-anchor="middle" x="345.40625mm" y="19.00000mm">7</text><line stroke="white" stroke-width="2" x1="520.62500mm" x2="520.62500mm" y1="574.00000mm" y2="579.00000mm" /><text fill="white" font-family="Arial" font-size="4mm" text-anchor="middle" x="495.59375mm" y="578.00000mm">10</text><line stroke="white" stroke-width="2" x1="320.37500mm" x2="320.37500mm" y1="574.00000mm" y2="579.00000mm" /><text fill="white" font-family="Arial" font-size="4mm" text-anchor="middle" x="345.40625mm" y="578.00000mm">7</text><line stroke="white" stroke-width="2" x1="570.68750mm" x2="570.68750mm" y1="15.00000mm" y2="20.00000mm" /><text fill="white" font-family="Arial" font-size="4mm" text-anchor="middle" x="545.65625mm" y="19.00000mm">11</text><line stroke="white" stroke-width="2" x1="270.31250mm" x2="270.31250mm" y1="15.00000mm" y2="20.00000mm" /><text fill="white" font-family="Arial" font-size="4mm" text-anchor="middle" x="295.34375mm" y="19.00000mm">6</text><line stroke="white" stroke-width="2" x1="570.68750mm" x2="570.68750mm" y1="574.00000mm" y2="579.00000mm" /><text fill="white" font-family="Arial" font-size="4mm" text-anchor="middle" x="545.65625mm" y="578.00000mm">11</text><line stroke="white" stroke-width="2" x1="270.31250mm" x2="270.31250mm" y1="574.00000mm" y2="579.00000mm" /><text fill="white" font-family="Arial" font-size="4mm" text-anchor="middle" x="295.34375mm" y="578.00000mm">6</text><line stroke="white" stroke-width="2" x1="620.75000mm" x2="620.75000mm" y1="15.00000mm" y2="20.00000mm" /><text fill="white" font-family="Arial" font-size="4mm" text-anchor="middle" x="595.71875mm" y="19.00000mm">12</text><line stroke="white" stroke-width="2" x1="220.25000mm" x2="220.25000mm" y1="15.00000mm" y2="20.00000mm" /><text fill="white" font-family="Arial" font-size="4mm" text-anchor="middle" x="245.28125mm" y="19.00000mm">5</text><line stroke="white" stroke-width="2" x1="620.75000mm" x2="620.75000mm" y1="574.00000mm" y2="579.00000mm" /><text fill="white" font-family="Arial" font-size="4mm" text-anchor="middle" x="595.71875mm" y="578.00000mm">12</text><line stroke="white" stroke-width="2" x1="220.25000mm" x2="220.25000mm" y1="574.00000mm" y2="579.00000mm" /><text fill="white" font-family="Arial" font-size="4mm" text-anchor="middle" x="245.28125mm" y="578.00000mm">5</text><line stroke="white" stroke-width="2" x1="670.81250mm" x2="670.81250mm" y1="15.00000mm" y2="20.00000mm" /><text fill="white" font-family="Arial" font-size="4mm" text-anchor="middle" x="645.78125mm" y="19.00000mm">13</text><line stroke="white" stroke-width="2" x1="170.18750mm" x2="170.18750mm" y1="15.00000mm" y2="20.00000mm" /><text fill="white" font-family="Arial" font-size="4mm" text-anchor="middle" x="195.21875mm" y="19.00000mm">4</text><line stroke="white" stroke-width="2" x1="670.81250mm" x2="670.81250mm" y1="574.00000mm" y2="579.00000mm" /><text fill="white" font-family="Arial" font-size="4mm" text-anchor="middle" x="645.78125mm" y="578.00000mm">13</text><line stroke="white" stroke-width="2" x1="170.18750mm" x2="170.18750mm" y1="574.00000mm" y2="579.00000mm" /><text fill="white" font-family="Arial" font-size="4mm" text-anchor="middle" x="195.21875mm" y="578.00000mm">4</text><line stroke="white" stroke-width="2" x1="720.87500mm" x2="720.87500mm" y1="15.00000mm" y2="20.00000mm" /><text fill="white" font-family="Arial" font-size="4mm" text-anchor="middle" x="695.84375mm" y="19.00000mm">14</text><line stroke="white" stroke-width="2" x1="120.12500mm" x2="120.12500mm" y1="15.00000mm" y2="20.00000mm" /><text fill="white" font-family="Arial" font-size="4mm" text-anchor="middle" x="145.15625mm" y="19.00000mm">3</text><line stroke="white" stroke-width="2" x1="720.87500mm" x2="720.87500mm" y1="574.00000mm" y2="579.00000mm" /><text fill="white" font-family="Arial" font-size="4mm" text-anchor="middle" x="695.84375mm" y="578.00000mm">14</text><line stroke="white" stroke-width="2" x1="120.12500mm" x2="120.12500mm" y1="574.00000mm" y2="579.00000mm" /><text fill="white" font-family="Arial" font-size="4mm" text-anchor="middle" x="145.15625mm" y="578.00000mm">3</text><line stroke="white" stroke-width="2" x1="770.93750mm" x2="770.93750mm" y1="15.00000mm" y2="20.00000mm" /><text fill="white" font-family="Arial" font-size="4mm" text-anchor="middle" x="745.90625mm" y="19.00000mm">15</text><line stroke="white" stroke-width="2" x1="70.06250mm" x2="70.06250mm" y1="15.00000mm" y2="20.00000mm" /><text fill="white" font-family="Arial" font-size="4mm" text-anchor="middle" x="95.09375mm" y="19.00000mm">2</text><line stroke="white" stroke-width="2" x1="770.93750mm" x2="770.93750mm" y1="574.00000mm" y2="579.00000mm" /><text fill="white" font-family="Arial" font-size="4mm" text-anchor="middle" x="745.90625mm" y="578.00000mm">15</text><line stroke="white" stroke-width="2" x1="70.06250mm" x2="70.06250mm" y1="574.00000mm" y2="579.00000mm" /><text fill="white" font-family="Arial" font-size="4mm" text-anchor="middle" x="95.09375mm" y="578.00000mm">2</text><text fill="white" font-family="Arial" font-size="4mm" text-anchor="middle" x="795.96875mm" y="19.00000mm">16</text><text fill="white" font-family="Arial" font-size="4mm" text-anchor="middle" x="795.96875mm" y="578.00000mm">16</text><text fill="white" font-family="Arial" font-size="4mm" text-anchor="middle" x="45.03125mm" y="578.00000mm">1</text><text fill="white" font-family="Arial" font-size="4mm" text-anchor="middle" x="45.03125mm" y="19.00000mm">1</text></svg>