<?xml version="1.0" encoding="utf-8" ?>
<svg baseProfile="tiny" height="594.00000mm" version="1.2" width="841.00000mm" xmlns="http://www.w3.org/2000/svg" xmlns:ev="http://www.w3.org/2001/xml-events" xmlns:xlink="http://www.w3.org/1999/xlink"><defs /><rect fill="#f742e1" height="594.00000mm" width="841.00000mm" x="0" y="0" /><rect fill="none" height="564.00000mm" stroke="white" stroke-width="3" width="811.00000mm" x="15.00000mm" y="15.00000mm" /><rect fill="none" height="554.00000mm" stroke="white" stroke-width="3" width="801.00000mm" x="20.00000mm" y="20.00000mm" /><line stroke="white" stroke-width="6" x1="15.00000mm" x2="20.00000mm" y1="297.00000mm" y2="297.00000mm" /><line stroke="white" stroke-width="6" x1="826.00000mm" x2="821.00000mm" y1="297.00000mm" y2="297.00000mm" /><line stroke="white" stroke-width="3" x1="15.00000mm" x2="20.00000mm" y1="366.25000mm" y2="366.25000mm" /><text fill="white" font-family="Arial" font-size="6mm" text-anchor="middle" x="17.50000mm" y="331.62500mm">E</text><line stroke="white" stroke-width="3" x1="15.00000mm" x2="20.00000mm" y1="227.75000mm" y2="227.75000mm" /><text fill="white" font-family="Arial" font-size="6mm" text-anchor="middle" x="17.50000mm" y="262.37500mm">D</text><line stroke="white" stroke-width="3" x1="821.00000mm" x2="826.00000mm" y1="366.25000mm" y2="366.25000mm" /><text fill="white" font-family="Arial" font-size="6mm" text-anchor="middle" x="823.50000mm" y="331.62500mm">E</text><line stroke="white" stroke-width="3" x1="821.00000mm" x2="826.00000mm" y1="227.75000mm" y2="227.75000mm" /><text fill="white" font-family="Arial" font-size="6mm" text-anchor="middle" x="823.50000mm" y="262.37500mm">D</text><line stroke="white" stroke-width="3" x1="15.00000mm" x2="20.00000mm" y1="435.50000mm" y2="435.50000mm" /><text fill="white" font-family="Arial" font-size="6mm" text-anchor="middle" x="17.50000mm" y="400.87500mm">F</text><line stroke="white" stroke-width="3" x1="15.00000mm" x2="20.00000mm" y1="158.50000mm" y2="158.50000mm" /><text fill="white" font-family="Arial" font-size="6mm" text-anchor="middle" x="17.50000mm" y="193.12500mm">C</text><line stroke="white" stroke-width="3" x1="821.00000mm" x2="826.00000mm" y1="435.50000mm" y2="435.50000mm" /><text fill="white" font-family="Arial" font-size="6mm" text-anchor="middle" x="823.50000mm" y="400.87500mm">F</text><line stroke="white" stroke-width="3" x1="821.00000mm" x2="826.00000mm" y1="158.50000mm" y2="158.50000mm" /><text fill="white" font-family="Arial" font-size="6mm" text-anchor="middle" x="823.50000mm" y="193.12500mm">C</text><line stroke="white" stroke-width="3" x1="15.00000mm" x2="20.00000mm" y1="504.75000mm" y2="504.75000mm" /><text fill="white" font-family="Arial" font-size="6mm" text-anchor="middle" x="17.50000mm" y="470.12500mm">G</text><line stroke="white" stroke-width="3" x1="15.00000mm" x2="20.00000mm" y1="89.25000mm" y2="89.25000mm" /><text fill="white" font-family="Arial" font-size="6mm" text-anchor="middle" x="17.50000mm" y="123.87500mm">B</text><line stroke="white" stroke-width="3" x1="821.00000mm" x2="826.00000mm" y1="504.75000mm" y2="504.75000mm" /><text fill="white" font-family="Arial" font-size="6mm" text-anchor="middle" x="823.50000mm" y="470.12500mm">G</text><line stroke="white" stroke-width="3" x1="821.00000mm" x2="826.00000mm" y1="89.25000mm" y2="89.25000mm" /><text fill="white" font-family="Arial" font-size="6mm" text-anchor="middle" x="823.50000mm" y="123.87500mm">B</text><text fill="white" font-family="Arial" font-size="6mm" text-anchor="middle" x="17.50000mm" y="539.37500mm">H</text><text fill="white" font-family="Arial" font-size="6mm" text-anchor="middle" x="823.50000mm" y="539.37500mm">H</text><text fill="white" font-family="Arial" font-size="6mm" text-anchor="middle" x="17.50000mm" y="54.62500mm">A</text><text fill="white" font-family="Arial" font-size="6mm" text-anchor="middle" x="823.50000mm" y="54.62500mm">A</text><line stroke="white" stroke-width="6" x1="420.50000mm" x2="420.50000mm" y1="15.00000mm" y2="20.00000mm" /><line stroke="white" stroke-width="6" x1="420.50000mm" x2="420.50000mm" y1="579.00000mm" y2="574.00000mm" /><line stroke="white" stroke-width="3" x1="487.25000mm" x2="487.25000mm" y1="15.00000mm" y2="20.00000mm" /><text fill="white" font-family="Arial" font-size="6mm" text-anchor="middle" x="453.87500mm" y="17.50000mm">7</text><line stroke="white" stroke-width="3" x1="353.75000mm" x2="353.75000mm" y1="15.00000mm" y2="20.00000mm" /><text fill="white" font-family="Arial" font-size="6mm" text-anchor="middle" x="387.12500mm" y="17.50000mm">6</text><line stroke="white" stroke-width="3" x1="487.25000mm" x2="487.25000mm" y1="574.00000mm" y2="579.00000mm" /><text fill="white" font-family="Arial" font-size="6mm" text-anchor="middle" x="453.87500mm" y="576.50000mm">7</text><line stroke="white" stroke-width="3" x1="353.75000mm" x2="353.75000mm" y1="574.00000mm" y2="579.00000mm" /><text fill="white" font-family="Arial" font-size="6mm" text-anchor="middle" x="387.12500mm" y="576.50000mm">6</text><line stroke="white" stroke-width="3" x1="554.00000mm" x2="554.00000mm" y1="15.00000mm" y2="20.00000mm" /><text fill="white" font-family="Arial" font-size="6mm" text-anchor="middle" x="520.62500mm" y="17.50000mm">8</text><line stroke="white" stroke-width="3" x1="287.00000mm" x2="287.00000mm" y1="15.00000mm" y2="20.00000mm" /><text fill="white" font-family="Arial" font-size="6mm" text-anchor="middle" x="320.37500mm" y="17.50000mm">5</text><line stroke="white" stroke-width="3" x1="554.00000mm" x2="554.00000mm" y1="574.00000mm" y2="579.00000mm" /><text fill="white" font-family="Arial" font-size="6mm" text-anchor="middle" x="520.62500mm" y="576.50000mm">8</text><line stroke="white" stroke-width="3" x1="287.00000mm" x2="287.00000mm" y1="574.00000mm" y2="579.00000mm" /><text fill="white" font-family="Arial" font-size="6mm" text-anchor="middle" x="320.37500mm" y="576.50000mm">5</text><line stroke="white" stroke-width="3" x1="620.75000mm" x2="620.75000mm" y1="15.00000mm" y2="20.00000mm" /><text fill="white" font-family="Arial" font-size="6mm" text-anchor="middle" x="587.37500mm" y="17.50000mm">9</text><line stroke="white" stroke-width="3" x1="220.25000mm" x2="220.25000mm" y1="15.00000mm" y2="20.00000mm" /><text fill="white" font-family="Arial" font-size="6mm" text-anchor="middle" x="253.62500mm" y="17.50000mm">4</text><line stroke="white" stroke-width="3" x1="620.75000mm" x2="620.75000mm" y1="574.00000mm" y2="579.00000mm" /><text fill="white" font-family="Arial" font-size="6mm" text-anchor="middle" x="587.37500mm" y="576.50000mm">9</text><line stroke="white" stroke-width="3" x1="220.25000mm" x2="220.25000mm" y1="574.00000mm" y2="579.00000mm" /><text fill="white" font-family="Arial" font-size="6mm" text-anchor="middle" x="253.62500mm" y="576.50000mm">4</text><line stroke="white" stroke-width="3" x1="687.50000mm" x2="687.50000mm" y1="15.00000mm" y2="20.00000mm" /><text fill="white" font-family="Arial" font-size="6mm" text-anchor="middle" x="654.12500mm" y="17.50000mm">10</text><line stroke="white" stroke-width="3" x1="153.50000mm" x2="153.50000mm" y1="15.00000mm" y2="20.00000mm" /><text fill="white" font-family="Arial" font-size="6mm" text-anchor="middle" x="186.87500mm" y="17.50000mm">3</text><line stroke="white" stroke-width="3" x1="687.50000mm" x2="687.50000mm" y1="574.00000mm" y2="579.00000mm" /><text fill="white" font-family="Arial" font-size="6mm" text-anchor="middle" x="654.12500mm" y="576.50000mm">10</text><line stroke="white" stroke-width="3" x1="153.50000mm" x2="153.50000mm" y1="574.00000mm" y2="579.00000mm" /><text fill="white" font-family="Arial" font-size="6mm" text-anchor="middle" x="186.87500mm" y="576.50000mm">3</text><line stroke="white" stroke-width="3" x1="754.25000mm" x2="754.25000mm" y1="15.00000mm" y2="20.00000mm" /><text fill="white" font-family="Arial" font-size="6mm" text-anchor="middle" x="720.87500mm" y="17.50000mm">11</text><line stroke="white" stroke-width="3" x1="86.75000mm" x2="86.75000mm" y1="15.00000mm" y2="20.00000mm" /><text fill="white" font-family="Arial" font-size="6mm" text-anchor="middle" x="120.12500mm" y="17.50000mm">2</text><line stroke="white" stroke-width="3" x1="754.25000mm" x2="754.25000mm" y1="574.00000mm" y2="579.00000mm" /><text fill="white" font-family="Arial" font-size="6mm" text-anchor="middle" x="720.87500mm" y="576.50000mm">11</text><line stroke="white" stroke-width="3" x1="86.75000mm" x2="86.75000mm" y1="574.00000mm" y2="579.00000mm" /><text fill="white" font-family="Arial" font-size="6mm" text-anchor="middle" x="120.12500mm" y="576.50000mm">2</text><text fill="white" font-family="Arial" font-size="6mm" text-anchor="middle" x="787.62500mm" y="17.50000mm">12</text><text fill="white" font-family="Arial" font-size="6mm" text-anchor="middle" x="787.62500mm" y="576.50000mm">12</text><text fill="white" font-family="Arial" font-size="6mm" text-anchor="middle" x="53.37500mm" y="576.50000mm">1</text><text fill="white" font-family="Arial" font-size="6mm" text-anchor="middle" x="53.37500mm" y="17.50000mm">1</text></svg>