<?xml version="1.0" encoding="utf-8" ?>
<svg baseProfile="tiny" height="594.00000mm" version="1.2" width="841.00000mm" xmlns="http://www.w3.org/2000/svg" xmlns:ev="http://www.w3.org/2001/xml-events" xmlns:xlink="http://www.w3.org/1999/xlink"><defs /><rect fill="#2f44f3" height="594.00000mm" width="841.00000mm" x="0" y="0" /><rect fill="none" height="564.00000mm" stroke="white" stroke-width="2" width="811.00000mm" x="15.00000mm" y="15.00000mm" /><rect fill="none" height="554.00000mm" stroke="white" stroke-width="2" width="801.00000mm" x="20.00000mm" y="20.00000mm" /><line stroke="white" stroke-width="4" x1="15.00000mm" x2="20.00000mm" y1="297.00000mm" y2="297.00000mm" /><line stroke="white" stroke-width="4" x1="826.00000mm" x2="821.00000mm" y1="297.00000mm" y2="297.00000mm" /><line stroke="white" stroke-width="2" x1="15.00000mm" x2="20.00000mm" y1="389.33333mm" y2="389.33333mm" /><text fill="white" font-family="Arial" font-size="4mm" text-anchor="middle" x="17.50000mm" y="344.66667mm">D</text><line stroke="white" stroke-width="2" x1="15.00000mm" x2="20.00000mm" y1="204.66667mm" y2="204.66667mm" /><text fill="white" font-family="Arial" font-size="4mm" text-anchor="middle" x="17.50000mm" y="252.33333mm">C</text><line stroke="white" stroke-width="2" x1="821.00000mm" x2="826.00000mm" y1="389.33333mm" y2="389.33333mm" /><text fill="white" font-family="Arial" font-size="4mm" text-anchor="middle" x="823.50000mm" y="344.66667mm">D</text><line stroke="white" stroke-width="2" x1="821.00000mm" x2="826.00000mm" y1="204.66667mm" y2="204.66667mm" /><text fill="white" font-family="Arial" font-size="4mm" text-anchor="middle" x="823.50000mm" y="252.33333mm">C</text><line stroke="white" stroke-width="2" x1="15.00000mm" x2="20.00000mm" y1="481.66667mm" y2="481.66667mm" /><text fill="white" font-family="Arial" font-size="4mm" text-anchor="middle" x="17.50000mm" y="437.00000mm">E</text><line stroke="white" stroke-width="2" x1="15.00000mm" x2="20.00000mm" y1="112.33333mm" y2="112.33333mm" /><text fill="white" font-family="Arial" font-size="4mm" text-anchor="middle" x="17.50000mm" y="160.00000mm">B</text><line stroke="white" stroke-width="2" x1="821.00000mm" x2="826.00000mm" y1="481.66667mm" y2="481.66667mm" /><text fill="white" font-family="Arial" font-size="4mm" text-anchor="middle" x="823.50000mm" y="437.00000mm">E</text><line stroke="white" stroke-width="2" x1="821.00000mm" x2="826.00000mm" y1="112.33333mm" y2="112.33333mm" /><text fill="white" font-family="Arial" font-size="4mm" text-anchor="middle" x="823.50000mm" y="160.00000mm">B</text><text fill="white" font-family="Arial" font-size="4mm" text-anchor="middle" x="17.50000mm" y="529.33333mm">F</text><text fill="white" font-family="Arial" font-size="4mm" text-anchor="middle" x="823.50000mm" y="529.33333mm">F</text><text fill="white" font-family="Arial" font-size="4mm" text-anchor="middle" x="17.50000mm" y="67.66667mm">A</text><text fill="white" font-family="Arial" font-size="4mm" text-anchor="middle" x="823.50000mm" y="67.66667mm">A</text><line stroke="white" stroke-width="4" x1="420.50000mm" x2="420.50000mm" y1="15.00000mm" y2="20.00000mm" /><line stroke="white" stroke-width="4" x1="420.50000mm" x2="420.50000mm" y1="579.00000mm" y2="574.00000mm" /><line stroke="white" stroke-width="2" x1="520.62500mm" x2="520.62500mm" y1="15.00000mm" y2="20.00000mm" /><text fill="white" font-family="Arial" font-size="4mm" text-anchor="middle" x="470.56250mm" y="19.00000mm">5</text><line stroke="white" stroke-width="2" x1="320.37500mm" x2="320.37500mm" y1="15.00000mm" y2="20.00000mm" /><text fill="white" font-family="Arial" font-size="4mm" text-anchor="middle" x="370.43750mm" y="19.00000mm">4</text><line stroke="white" stroke-width="2" x1="520.62500mm" x2="520.62500mm" y1="574.00000mm" y2="579.00000mm" /><text fill="white" font-family="Arial" font-size="4mm" text-anchor="middle" x="470.56250mm" y="578.00000mm">5</text><line stroke="white" stroke-width="2" x1="320.37500mm" x2="320.37500mm" y1="574.00000mm" y2="579.00000mm" /><text fill="white" font-family="Arial" font-size="4mm" text-anchor="middle" x="370.43750mm" y="578.00000mm">4</text><line stroke="white" stroke-width="2" x1="620.75000mm" x2="620.75000mm" y1="15.00000mm" y2="20.00000mm" /><text fill="white" font-family="Arial" font-size="4mm" text-anchor="middle" x="570.68750mm" y="19.00000mm">6</text><line stroke="white" stroke-width="2" x1="220.25000mm" x2="220.25000mm" y1="15.00000mm" y2="20.00000mm" /><text fill="white" font-family="Arial" font-size="4mm" text-anchor="middle" x="270.31250mm" y="19.00000mm">3</text><line stroke="white" stroke-width="2" x1="620.75000mm" x2="620.75000mm" y1="574.00000mm" y2="579.00000mm" /><text fill="white" font-family="Arial" font-size="4mm" text-anchor="middle" x="570.68750mm" y="578.00000mm">6</text><line stroke="white" stroke-width="2" x1="220.25000mm" x2="220.25000mm" y1="574.00000mm" y2="579.00000mm" /><text fill="white" font-family="Arial" font-size="4mm" text-anchor="middle" x="270.31250mm" y="578.00000mm">3</text><line stroke="white" stroke-width="2" x1="720.87500mm" x2="720.87500mm" y1="15.00000mm" y2="20.00000mm" /><text fill="white" font-family="Arial" font-size="4mm" text-anchor="middle" x="670.81250mm" y="19.00000mm">7</text><line stroke="white" stroke-width="2" x1="120.12500mm" x2="120.12500mm" y1="15.00000mm" y2="20.00000mm" /><text fill="white" font-family="Arial" font-size="4mm" text-anchor="middle" x="170.18750mm" y="19.00000mm">2</text><line stroke="white" stroke-width="2" x1="720.87500mm" x2="720.87500mm" y1="574.00000mm" y2="579.00000mm" /><text fill="white" font-family="Arial" font-size="4mm" text-anchor="middle" x="670.81250mm" y="578.00000mm">7</text><line stroke="white" stroke-width="2" x1="120.12500mm" x2="120.12500mm" y1="574.00000mm" y2="579.00000mm" /><text fill="white" font-family="Arial" font-size="4mm" text-anchor="middle" x="170.18750mm" y="578.00000mm">2</text><text fill="white" font-family="Arial" font-size="4mm" text-anchor="middle" x="770.93750mm" y="19.00000mm">8</text><text fill="white" font-family="Arial" font-size="4mm" text-anchor="middle" x="770.93750mm" y="578.00000mm">8</text><text fill="white" font-family="Arial" font-size="4mm" text-anchor="middle" x="70.06250mm" y="578.00000mm">1</text><text fill="white" font-family="Arial" font-size="4mm" text-anchor="middle" x="70.06250mm" y="19.00000mm">1</text></svg>