<?xml version="1.0" encoding="utf-8" ?>
<svg baseProfile="tiny" height="594.00000mm" version="1.2" width="841.00000mm" xmlns="http://www.w3.org/2000/svg" xmlns:ev="http://www.w3.org/2001/xml-events" xmlns:xlink="http://www.w3.org/1999/xlink"><defs /><rect fill="#389552" height="594.00000mm" width="841.00000mm" x="0" y="0" /><rect fill="none" height="564.00000mm" stroke="white" stroke-width="3" width="811.00000mm" x="15.00000mm" y="15.00000mm" /><rect fill="none" height="554.00000mm" stroke="white" stroke-width="3" width="801.00000mm" x="20.00000mm" y="20.00000mm" /><line stroke="white" stroke-width="6" x1="15.00000mm" x2="20.00000mm" y1="297.00000mm" y2="297.00000mm" /><line stroke="white" stroke-width="6" x1="826.00000mm" x2="821.00000mm" y1="297.00000mm" y2="297.00000mm" /><line stroke="white" stroke-width="3" x1="15.00000mm" x2="20.00000mm" y1="435.50000mm" y2="435.50000mm" /><text fill="white" font-family="Arial" font-size="6mm" text-anchor="middle" x="17.50000mm" y="366.25000mm">C</text><line stroke="white" stroke-width="3" x1="15.00000mm" x2="20.00000mm" y1="158.50000mm" y2="158.50000mm" /><text fill="white" font-family="Arial" font-size="6mm" text-anchor="middle" x="17.50000mm" y="227.75000mm">B</text><line stroke="white" stroke-width="3" x1="821.00000mm" x2="826.00000mm" y1="435.50000mm" y2="435.50000mm" /><text fill="white" font-family="Arial" font-size="6mm" text-anchor="middle" x="823.50000mm" y="366.25000mm">C</text><line stroke="white" stroke-width="3" x1="821.00000mm" x2="826.00000mm" y1="158.50000mm" y2="158.50000mm" /><text fill="white" font-family="Arial" font-size="6mm" text-anchor="middle" x="823.50000mm" y="227.75000mm">B</text><text fill="white" font-family="Arial" font-size="6mm" text-anchor="middle" x="17.50000mm" y="504.75000mm">D</text><text fill="white" font-family="Arial" font-size="6mm" text-anchor="middle" x="823.50000mm" y="504.75000mm">D</text><text fill="white" font-family="Arial" font-size="6mm" text-anchor="middle" x="17.50000mm" y="89.25000mm">A</text><text fill="white" font-family="Arial" font-size="6mm" text-anchor="middle" x="823.50000mm" y="89.25000mm">A</text><line stroke="white" stroke-width="6" x1="420.50000mm" x2="420.50000mm" y1="15.00000mm" y2="20.00000mm" /><line stroke="white" stroke-width="6" x1="420.50000mm" x2="420.50000mm" y1="579.00000mm" y2="574.00000mm" /><line stroke="white" stroke-width="3" x1="554.00000mm" x2="554.00000mm" y1="15.00000mm" y2="20.00000mm" /><text fill="white" font-family="Arial" font-size="6mm" text-anchor="middle" x="487.25000mm" y="17.50000mm">4</text><line stroke="white" stroke-width="3" x1="287.00000mm" x2="287.00000mm" y1="15.00000mm" y2="20.00000mm" /><text fill="white" font-family="Arial" font-size="6mm" text-anchor="middle" x="353.75000mm" y="17.50000mm">3</text><line stroke="white" stroke-width="3" x1="554.00000mm" x2="554.00000mm" y1="574.00000mm" y2="579.00000mm" /><text fill="white" font-family="Arial" font-size="6mm" text-anchor="middle" x="487.25000mm" y="576.50000mm">4</text><line stroke="white" stroke-width="3" x1="287.00000mm" x2="287.00000mm" y1="574.00000mm" y2="579.00000mm" /><text fill="white" font-family="Arial" font-size="6mm" text-anchor="middle" x="353.75000mm" y="576.50000mm">3</text><line stroke="white" stroke-width="3" x1="687.50000mm" x2="687.50000mm" y1="15.00000mm" y2="20.00000mm" /><text fill="white" font-family="Arial" font-size="6mm" text-anchor="middle" x="620.75000mm" y="17.50000mm">5</text><line stroke="white" stroke-width="3" x1="153.50000mm" x2="153.50000mm" y1="15.00000mm" y2="20.00000mm" /><text fill="white" font-family="Arial" font-size="6mm" text-anchor="middle" x="220.25000mm" y="17.50000mm">2</text><line stroke="white" stroke-width="3" x1="687.50000mm" x2="687.50000mm" y1="574.00000mm" y2="579.00000mm" /><text fill="white" font-family="Arial" font-size="6mm" text-anchor="middle" x="620.75000mm" y="576.50000mm">5</text><line stroke="white" stroke-width="3" x1="153.50000mm" x2="153.50000mm" y1="574.00000mm" y2="579.00000mm" /><text fill="white" font-family="Arial" font-size="6mm" text-anchor="middle" x="220.25000mm" y="576.50000mm">2</text><text fill="white" font-family="Arial" font-size="6mm" text-anchor="middle" x="754.25000mm" y="17.50000mm">6</text><text fill="white" font-family="Arial" font-size="6mm" text-anchor="middle" x="754.25000mm" y="576.50000mm">6</text><text fill="white" font-family="Arial" font-size="6mm" text-anchor="middle" x="86.75000mm" y="576.50000mm">1</text><text fill="white" font-family="Arial" font-size="6mm" text-anchor="middle" x="86.75000mm" y="17.50000mm">1</text></svg>