<?xml version="1.0" encoding="utf-8" ?>
<svg baseProfile="tiny" height="594mm" version="1.2" width="841mm" xmlns="http://www.w3.org/2000/svg" xmlns:ev="http://www.w3.org/2001/xml-events" xmlns:xlink="http://www.w3.org/1999/xlink"><defs /><rect fill="darkblue" height="594mm" width="841mm" x="0" y="0" /><rect fill="none" height="494mm" stroke="white" stroke-width="3" width="741mm" x="50.0mm" y="50.0mm" /><rect fill="none" height="434mm" stroke="white" stroke-width="3" width="681mm" x="80.0mm" y="80.0mm" /><line stroke="white" stroke-width="6" x1="50.0mm" x2="80.0mm" y1="297.0mm" y2="297.0mm" /><line stroke="white" stroke-width="6" x1="791.0mm" x2="761.0mm" y1="297.0mm" y2="297.0mm" /><line stroke="white" stroke-width="3" x1="50.0mm" x2="80.0mm" y1="369.3333333333333mm" y2="369.3333333333333mm" /><line stroke="white" stroke-width="3" x1="50.0mm" x2="80.0mm" y1="224.66666666666669mm" y2="224.66666666666669mm" /><line stroke="white" stroke-width="3" x1="761.0mm" x2="791.0mm" y1="369.3333333333333mm" y2="369.3333333333333mm" /><line stroke="white" stroke-width="3" x1="761.0mm" x2="791.0mm" y1="224.66666666666669mm" y2="224.66666666666669mm" /><line stroke="white" stroke-width="3" x1="50.0mm" x2="80.0mm" y1="441.66666666666663mm" y2="441.66666666666663mm" /><line stroke="white" stroke-width="3" x1="50.0mm" x2="80.0mm" y1="152.33333333333334mm" y2="152.33333333333334mm" /><line stroke="white" stroke-width="3" x1="761.0mm" x2="791.0mm" y1="441.66666666666663mm" y2="441.66666666666663mm" /><line stroke="white" stroke-width="3" x1="761.0mm" x2="791.0mm" y1="152.33333333333334mm" y2="152.33333333333334mm" /><line stroke="white" stroke-width="6" x1="420.5mm" x2="420.5mm" y1="50.0mm" y2="80.0mm" /><line stroke="white" stroke-width="6" x1="420.5mm" x2="420.5mm" y1="544.0mm" y2="514.0mm" /><line stroke="white" stroke-width="3" x1="488.6mm" x2="488.6mm" y1="50.0mm" y2="80.0mm" /><line stroke="white" stroke-width="3" x1="352.4mm" x2="352.4mm" y1="50.0mm" y2="80.0mm" /><line stroke="white" stroke-width="3" x1="488.6mm" x2="488.6mm" y1="514.0mm" y2="544.0mm" /><line stroke="white" stroke-width="3" x1="352.4mm" x2="352.4mm" y1="514.0mm" y2="544.0mm" /><line stroke="white" stroke-width="3" x1="556.7mm" x2="556.7mm" y1="50.0mm" y2="80.0mm" /><line stroke="white" stroke-width="3" x1="284.3mm" x2="284.3mm" y1="50.0mm" y2="80.0mm" /><line stroke="white" stroke-width="3" x1="556.7mm" x2="556.7mm" y1="514.0mm" y2="544.0mm" /><line stroke="white" stroke-width="3" x1="284.3mm" x2="284.3mm" y1="514.0mm" y2="544.0mm" /><line stroke="white" stroke-width="3" x1="624.8mm" x2="624.8mm" y1="50.0mm" y2="80.0mm" /><line stroke="white" stroke-width="3" x1="216.2mm" x2="216.2mm" y1="50.0mm" y2="80.0mm" /><line stroke="white" stroke-width="3" x1="624.8mm" x2="624.8mm" y1="514.0mm" y2="544.0mm" /><line stroke="white" stroke-width="3" x1="216.2mm" x2="216.2mm" y1="514.0mm" y2="544.0mm" /><line stroke="white" stroke-width="3" x1="692.9mm" x2="692.9mm" y1="50.0mm" y2="80.0mm" /><line stroke="white" stroke-width="3" x1="148.10000000000002mm" x2="148.10000000000002mm" y1="50.0mm" y2="80.0mm" /><line stroke="white" stroke-width="3" x1="692.9mm" x2="692.9mm" y1="514.0mm" y2="544.0mm" /><line stroke="white" stroke-width="3" x1="148.10000000000002mm" x2="148.10000000000002mm" y1="514.0mm" y2="544.0mm" /></svg>