<?xml version="1.0" encoding="utf-8" ?>
<svg baseProfile="tiny" height="594.00000mm" version="1.2" width="841.00000mm" xmlns="http://www.w3.org/2000/svg" xmlns:ev="http://www.w3.org/2001/xml-events" xmlns:xlink="http://www.w3.org/1999/xlink"><defs /><rect fill="#df3d19" height="594.00000mm" width="841.00000mm" x="0" y="0" /><rect fill="none" height="494.00000mm" stroke="white" stroke-width="3" width="741.00000mm" x="50.00000mm" y="50.00000mm" /><rect fill="none" height="434.00000mm" stroke="white" stroke-width="3" width="681.00000mm" x="80.00000mm" y="80.00000mm" /><line stroke="white" stroke-width="6" x1="50.00000mm" x2="80.00000mm" y1="297.00000mm" y2="297.00000mm" /><line stroke="white" stroke-width="6" x1="791.00000mm" x2="761.00000mm" y1="297.00000mm" y2="297.00000mm" /><line stroke="white" stroke-width="3" x1="50.00000mm" x2="80.00000mm" y1="351.25000mm" y2="351.25000mm" /><text fill="white" font-family="Arial" font-size="10mm" text-anchor="middle" x="65.00000mm" y="324.12500mm">E</text><line stroke="white" stroke-width="3" x1="50.00000mm" x2="80.00000mm" y1="242.75000mm" y2="242.75000mm" /><text fill="white" font-family="Arial" font-size="10mm" text-anchor="middle" x="65.00000mm" y="269.87500mm">D</text><line stroke="white" stroke-width="3" x1="761.00000mm" x2="791.00000mm" y1="351.25000mm" y2="351.25000mm" /><text fill="white" font-family="Arial" font-size="10mm" text-anchor="middle" x="776.00000mm" y="324.12500mm">E</text><line stroke="white" stroke-width="3" x1="761.00000mm" x2="791.00000mm" y1="242.75000mm" y2="242.75000mm" /><text fill="white" font-family="Arial" font-size="10mm" text-anchor="middle" x="776.00000mm" y="269.87500mm">D</text><line stroke="white" stroke-width="3" x1="50.00000mm" x2="80.00000mm" y1="405.50000mm" y2="405.50000mm" /><text fill="white" font-family="Arial" font-size="10mm" text-anchor="middle" x="65.00000mm" y="378.37500mm">F</text><line stroke="white" stroke-width="3" x1="50.00000mm" x2="80.00000mm" y1="188.50000mm" y2="188.50000mm" /><text fill="white" font-family="Arial" font-size="10mm" text-anchor="middle" x="65.00000mm" y="215.62500mm">C</text><line stroke="white" stroke-width="3" x1="761.00000mm" x2="791.00000mm" y1="405.50000mm" y2="405.50000mm" /><text fill="white" font-family="Arial" font-size="10mm" text-anchor="middle" x="776.00000mm" y="378.37500mm">F</text><line stroke="white" stroke-width="3" x1="761.00000mm" x2="791.00000mm" y1="188.50000mm" y2="188.50000mm" /><text fill="white" font-family="Arial" font-size="10mm" text-anchor="middle" x="776.00000mm" y="215.62500mm">C</text><line stroke="white" stroke-width="3" x1="50.00000mm" x2="80.00000mm" y1="459.75000mm" y2="459.75000mm" /><text fill="white" font-family="Arial" font-size="10mm" text-anchor="middle" x="65.00000mm" y="432.62500mm">G</text><line stroke="white" stroke-width="3" x1="50.00000mm" x2="80.00000mm" y1="134.25000mm" y2="134.25000mm" /><text fill="white" font-family="Arial" font-size="10mm" text-anchor="middle" x="65.00000mm" y="161.37500mm">B</text><line stroke="white" stroke-width="3" x1="761.00000mm" x2="791.00000mm" y1="459.75000mm" y2="459.75000mm" /><text fill="white" font-family="Arial" font-size="10mm" text-anchor="middle" x="776.00000mm" y="432.62500mm">G</text><line stroke="white" stroke-width="3" x1="761.00000mm" x2="791.00000mm" y1="134.25000mm" y2="134.25000mm" /><text fill="white" font-family="Arial" font-size="10mm" text-anchor="middle" x="776.00000mm" y="161.37500mm">B</text><text fill="white" font-family="Arial" font-size="10mm" text-anchor="middle" x="65.00000mm" y="486.87500mm">H</text><text fill="white" font-family="Arial" font-size="10mm" text-anchor="middle" x="776.00000mm" y="486.87500mm">H</text><text fill="white" font-family="Arial" font-size="10mm" text-anchor="middle" x="65.00000mm" y="107.12500mm">A</text><text fill="white" font-family="Arial" font-size="10mm" text-anchor="middle" x="776.00000mm" y="107.12500mm">A</text><line stroke="white" stroke-width="6" x1="420.50000mm" x2="420.50000mm" y1="50.00000mm" y2="80.00000mm" /><line stroke="white" stroke-width="6" x1="420.50000mm" x2="420.50000mm" y1="544.00000mm" y2="514.00000mm" /><line stroke="white" stroke-width="3" x1="488.60000mm" x2="488.60000mm" y1="50.00000mm" y2="80.00000mm" /><text fill="white" font-family="Arial" font-size="10mm" text-anchor="middle" x="454.55000mm" y="65.00000mm">6</text><line stroke="white" stroke-width="3" x1="352.40000mm" x2="352.40000mm" y1="50.00000mm" y2="80.00000mm" /><text fill="white" font-family="Arial" font-size="10mm" text-anchor="middle" x="386.45000mm" y="65.00000mm">5</text><line stroke="white" stroke-width="3" x1="488.60000mm" x2="488.60000mm" y1="514.00000mm" y2="544.00000mm" /><text fill="white" font-family="Arial" font-size="10mm" text-anchor="middle" x="454.55000mm" y="529.00000mm">6</text><line stroke="white" stroke-width="3" x1="352.40000mm" x2="352.40000mm" y1="514.00000mm" y2="544.00000mm" /><text fill="white" font-family="Arial" font-size="10mm" text-anchor="middle" x="386.45000mm" y="529.00000mm">5</text><line stroke="white" stroke-width="3" x1="556.70000mm" x2="556.70000mm" y1="50.00000mm" y2="80.00000mm" /><text fill="white" font-family="Arial" font-size="10mm" text-anchor="middle" x="522.65000mm" y="65.00000mm">7</text><line stroke="white" stroke-width="3" x1="284.30000mm" x2="284.30000mm" y1="50.00000mm" y2="80.00000mm" /><text fill="white" font-family="Arial" font-size="10mm" text-anchor="middle" x="318.35000mm" y="65.00000mm">4</text><line stroke="white" stroke-width="3" x1="556.70000mm" x2="556.70000mm" y1="514.00000mm" y2="544.00000mm" /><text fill="white" font-family="Arial" font-size="10mm" text-anchor="middle" x="522.65000mm" y="529.00000mm">7</text><line stroke="white" stroke-width="3" x1="284.30000mm" x2="284.30000mm" y1="514.00000mm" y2="544.00000mm" /><text fill="white" font-family="Arial" font-size="10mm" text-anchor="middle" x="318.35000mm" y="529.00000mm">4</text><line stroke="white" stroke-width="3" x1="624.80000mm" x2="624.80000mm" y1="50.00000mm" y2="80.00000mm" /><text fill="white" font-family="Arial" font-size="10mm" text-anchor="middle" x="590.75000mm" y="65.00000mm">8</text><line stroke="white" stroke-width="3" x1="216.20000mm" x2="216.20000mm" y1="50.00000mm" y2="80.00000mm" /><text fill="white" font-family="Arial" font-size="10mm" text-anchor="middle" x="250.25000mm" y="65.00000mm">3</text><line stroke="white" stroke-width="3" x1="624.80000mm" x2="624.80000mm" y1="514.00000mm" y2="544.00000mm" /><text fill="white" font-family="Arial" font-size="10mm" text-anchor="middle" x="590.75000mm" y="529.00000mm">8</text><line stroke="white" stroke-width="3" x1="216.20000mm" x2="216.20000mm" y1="514.00000mm" y2="544.00000mm" /><text fill="white" font-family="Arial" font-size="10mm" text-anchor="middle" x="250.25000mm" y="529.00000mm">3</text><line stroke="white" stroke-width="3" x1="692.90000mm" x2="692.90000mm" y1="50.00000mm" y2="80.00000mm" /><text fill="white" font-family="Arial" font-size="10mm" text-anchor="middle" x="658.85000mm" y="65.00000mm">9</text><line stroke="white" stroke-width="3" x1="148.10000mm" x2="148.10000mm" y1="50.00000mm" y2="80.00000mm" /><text fill="white" font-family="Arial" font-size="10mm" text-anchor="middle" x="182.15000mm" y="65.00000mm">2</text><line stroke="white" stroke-width="3" x1="692.90000mm" x2="692.90000mm" y1="514.00000mm" y2="544.00000mm" /><text fill="white" font-family="Arial" font-size="10mm" text-anchor="middle" x="658.85000mm" y="529.00000mm">9</text><line stroke="white" stroke-width="3" x1="148.10000mm" x2="148.10000mm" y1="514.00000mm" y2="544.00000mm" /><text fill="white" font-family="Arial" font-size="10mm" text-anchor="middle" x="182.15000mm" y="529.00000mm">2</text><text fill="white" font-family="Arial" font-size="10mm" text-anchor="middle" x="726.95000mm" y="65.00000mm">10</text><text fill="white" font-family="Arial" font-size="10mm" text-anchor="middle" x="726.95000mm" y="529.00000mm">10</text><text fill="white" font-family="Arial" font-size="10mm" text-anchor="middle" x="114.05000mm" y="529.00000mm">1</text><text fill="white" font-family="Arial" font-size="10mm" text-anchor="middle" x="114.05000mm" y="65.00000mm">1</text></svg>